<?xml version="1.0"?>
<svg width="1600" height="465" xmlns="http://www.w3.org/2000/svg" xmlns:svg="http://www.w3.org/2000/svg">
 <!-- Created with SVG-edit - http://svg-edit.googlecode.com/ -->
 <title>pglogo</title>
 <g stroke="null">
  <title>Layer 1</title>
  <path fill="#000000" stroke="#ffffff" stroke-width="5" stroke-dasharray="null" stroke-linejoin="null" stroke-linecap="null" d="m1.99988,4.00002l1600,0l0,463.999969l-1600,0l0,-463.999969z" id="svg_12"/>
  <path fill="#ffffff" stroke="#ffffff" stroke-width="5" stroke-dasharray="null" stroke-linejoin="null" stroke-linecap="null" d="m1173.16357,236c0,-116.484215 94.352215,-210.83643 210.83643,-210.83643c116.484215,0 210.83643,94.352215 210.83643,210.83643c0,116.484215 -94.352215,210.83643 -210.83643,210.83643c-116.484215,0 -210.83643,-94.352215 -210.83643,-210.83643z" id="svg_3"/>
  <path fill="#020202" stroke="#ffffff" stroke-width="5" stroke-dasharray="null" stroke-linejoin="null" stroke-linecap="null" d="m1193.196926,238c0,-105.696435 85.614112,-191.310547 191.310547,-191.310547c105.696435,0 191.310547,85.614112 191.310547,191.310547c0,105.696435 -85.614112,191.310547 -191.310547,191.310547c-105.696435,0 -191.310547,-85.614112 -191.310547,-191.310547z" id="svg_4"/>
  <path fill="#020202" stroke="#000000" stroke-width="5" stroke-dasharray="null" stroke-linejoin="null" stroke-linecap="null" transform="rotate(-4.523191928863525 1232.7761230468764,327.5074462890634) " d="m1208.776123,232.328339l48,0l0,190.3582l-48,0l0,-190.3582z" id="svg_6"/>
  <text stroke="#ffffff" transform="matrix(15.045548439025879,0,0,5.411299228668213,-17594.46349851787,-1431.466599702835) " xml:space="preserve" text-anchor="middle" font-family="serif" font-size="24" id="svg_7" y="346" x="1264" stroke-linecap="null" stroke-linejoin="null" stroke-dasharray="null" stroke-width="0" fill="#fff2f2"/>
  <text font-weight="normal" font-style="normal" stroke="#ffffff" transform="rotate(-20.492809295654297 1393.9879150390627,249.0898590087892) matrix(9.9984712600708,0,0,6.5,-1715.6147861778736,-1749) " xml:space="preserve" text-anchor="middle" font-family="Fantasy" font-size="24" id="svg_10" y="311.38462" x="311.01605" stroke-linecap="null" stroke-linejoin="null" stroke-dasharray="null" stroke-width="0" fill="#ffffff">pG</text>
  <text stroke="#ffffff" transform="matrix(4.39861099451294,0,0,3.3541488647460938,255.04991681188284,-968.6219071149826) " xml:space="preserve" text-anchor="middle" font-family="Monospace" font-size="24" id="svg_13" y="421.47819" x="81.187" stroke-linecap="null" stroke-linejoin="null" stroke-dasharray="null" stroke-width="0" fill="#ffffff">pointlessGripes.com</text>
  <path fill="#000000" stroke="#000000" stroke-width="5" stroke-dasharray="null" stroke-linejoin="null" stroke-linecap="null" d="m1535.820923,69.328377l11.940299,0l0,79.104477l-11.940299,0l0,-79.104477z" id="svg_1"/>
  <path fill="#000000" stroke="#000000" stroke-width="5" stroke-dasharray="null" stroke-linejoin="null" stroke-linecap="null" d="m1502.985107,42.462708l11.940299,0l0,79.104477l-11.940299,0l0,-79.104477z" id="svg_2"/>
  <path fill="#000000" stroke="#000000" stroke-width="5" stroke-dasharray="null" stroke-linejoin="null" stroke-linecap="null" d="m1467.164185,24.552256l11.940299,0l0,79.104477l-11.940299,0l0,-79.104477z" id="svg_5"/>
 </g>
</svg>